<mxfile host="app.diagrams.net" modified="2021-09-20T10:51:29.819Z" agent="5.0 (Macintosh; Intel Mac OS X 10_15_7) AppleWebKit/537.36 (KHTML, like Gecko) Chrome/93.0.4577.82 Safari/537.36" etag="4McgrIKibP06cTr07Ny4" version="15.2.9" type="github">
  <diagram id="eTJvjHi5Dfhe8taksRc_" name="Page-1">
    <mxGraphModel dx="679" dy="330" grid="1" gridSize="10" guides="1" tooltips="1" connect="1" arrows="1" fold="1" page="1" pageScale="1" pageWidth="827" pageHeight="1169" math="0" shadow="0">
      <root>
        <mxCell id="0" />
        <mxCell id="1" parent="0" />
        <mxCell id="jGOLAEwrS2vHA-Cddx07-1" value="" style="rounded=1;whiteSpace=wrap;html=1;" vertex="1" parent="1">
          <mxGeometry x="40" y="100" width="200" height="180" as="geometry" />
        </mxCell>
        <mxCell id="jGOLAEwrS2vHA-Cddx07-14" style="edgeStyle=orthogonalEdgeStyle;rounded=0;orthogonalLoop=1;jettySize=auto;html=1;" edge="1" parent="1" source="jGOLAEwrS2vHA-Cddx07-2" target="jGOLAEwrS2vHA-Cddx07-1">
          <mxGeometry relative="1" as="geometry" />
        </mxCell>
        <mxCell id="jGOLAEwrS2vHA-Cddx07-2" value="Send_API" style="text;html=1;strokeColor=none;fillColor=none;align=center;verticalAlign=middle;whiteSpace=wrap;rounded=0;" vertex="1" parent="1">
          <mxGeometry x="110" y="40" width="40" height="20" as="geometry" />
        </mxCell>
        <mxCell id="jGOLAEwrS2vHA-Cddx07-15" style="edgeStyle=orthogonalEdgeStyle;rounded=0;orthogonalLoop=1;jettySize=auto;html=1;entryX=0;entryY=0.25;entryDx=0;entryDy=0;" edge="1" parent="1" source="jGOLAEwrS2vHA-Cddx07-3" target="jGOLAEwrS2vHA-Cddx07-6">
          <mxGeometry relative="1" as="geometry" />
        </mxCell>
        <mxCell id="jGOLAEwrS2vHA-Cddx07-3" value="要接收消息的人（UID）" style="rounded=0;whiteSpace=wrap;html=1;" vertex="1" parent="1">
          <mxGeometry x="62.5" y="110" width="157.5" height="20" as="geometry" />
        </mxCell>
        <mxCell id="jGOLAEwrS2vHA-Cddx07-4" value="title" style="rounded=0;whiteSpace=wrap;html=1;" vertex="1" parent="1">
          <mxGeometry x="62.5" y="140" width="156" height="20" as="geometry" />
        </mxCell>
        <mxCell id="jGOLAEwrS2vHA-Cddx07-5" value="content" style="rounded=0;whiteSpace=wrap;html=1;" vertex="1" parent="1">
          <mxGeometry x="62.5" y="170" width="156" height="20" as="geometry" />
        </mxCell>
        <mxCell id="jGOLAEwrS2vHA-Cddx07-6" value="" style="rounded=1;whiteSpace=wrap;html=1;" vertex="1" parent="1">
          <mxGeometry x="330" y="90" width="210" height="110" as="geometry" />
        </mxCell>
        <mxCell id="jGOLAEwrS2vHA-Cddx07-7" value="User" style="text;html=1;strokeColor=none;fillColor=none;align=center;verticalAlign=middle;whiteSpace=wrap;rounded=0;" vertex="1" parent="1">
          <mxGeometry x="405" y="60" width="40" height="20" as="geometry" />
        </mxCell>
        <mxCell id="jGOLAEwrS2vHA-Cddx07-9" value="UID（后端随机生成）" style="rounded=0;whiteSpace=wrap;html=1;" vertex="1" parent="1">
          <mxGeometry x="365" y="100" width="120" height="20" as="geometry" />
        </mxCell>
        <mxCell id="jGOLAEwrS2vHA-Cddx07-13" value="通知发起人角度" style="text;html=1;strokeColor=none;fillColor=none;align=center;verticalAlign=middle;whiteSpace=wrap;rounded=0;" vertex="1" parent="1">
          <mxGeometry x="80" y="10" width="100" height="20" as="geometry" />
        </mxCell>
        <mxCell id="jGOLAEwrS2vHA-Cddx07-21" style="edgeStyle=orthogonalEdgeStyle;rounded=0;orthogonalLoop=1;jettySize=auto;html=1;" edge="1" parent="1" source="jGOLAEwrS2vHA-Cddx07-16" target="jGOLAEwrS2vHA-Cddx07-20">
          <mxGeometry relative="1" as="geometry" />
        </mxCell>
        <mxCell id="jGOLAEwrS2vHA-Cddx07-16" value="接收消息的渠道&lt;br&gt;（钉钉、微信、bark...）" style="rounded=0;whiteSpace=wrap;html=1;" vertex="1" parent="1">
          <mxGeometry x="365" y="135" width="132.5" height="50" as="geometry" />
        </mxCell>
        <mxCell id="jGOLAEwrS2vHA-Cddx07-20" value="User在前端自行设置&lt;br&gt;（可以多选）" style="rounded=1;whiteSpace=wrap;html=1;" vertex="1" parent="1">
          <mxGeometry x="570" y="130" width="120" height="60" as="geometry" />
        </mxCell>
        <mxCell id="jGOLAEwrS2vHA-Cddx07-23" value="" style="endArrow=none;html=1;" edge="1" parent="1">
          <mxGeometry width="50" height="50" relative="1" as="geometry">
            <mxPoint x="570" y="260" as="sourcePoint" />
            <mxPoint x="570" y="260" as="targetPoint" />
          </mxGeometry>
        </mxCell>
        <mxCell id="jGOLAEwrS2vHA-Cddx07-24" value="group（optional）" style="rounded=0;whiteSpace=wrap;html=1;" vertex="1" parent="1">
          <mxGeometry x="62" y="200" width="156" height="20" as="geometry" />
        </mxCell>
        <mxCell id="jGOLAEwrS2vHA-Cddx07-25" value="...." style="text;html=1;strokeColor=none;fillColor=none;align=center;verticalAlign=middle;whiteSpace=wrap;rounded=0;" vertex="1" parent="1">
          <mxGeometry x="120" y="230" width="40" height="20" as="geometry" />
        </mxCell>
      </root>
    </mxGraphModel>
  </diagram>
</mxfile>
